<svg width="24" height="24" viewBox="0 0 24 24" fill="none" xmlns="http://www.w3.org/2000/svg">
<path d="M18.9906 15.1057L16.2881 12.4032C16.2471 12.3622 16.1999 12.3285 16.1485 12.3025L14.2544 11.3639L14.3759 11.2424C14.5835 11.0348 14.5835 10.6985 14.3759 10.491C14.1683 10.2834 13.8321 10.2834 13.6245 10.491C13.5623 10.5532 11.8778 12.2376 11.9336 12.1819L7.81013 8.05835L7.99794 6.82694C8.05606 6.44399 7.89986 6.06258 7.59059 5.83115L5.42725 4.20851C5.01315 3.89716 4.42471 3.93868 4.0568 4.30503L3.30541 5.05693C2.93906 5.42328 2.89703 6.01173 3.20786 6.42582L4.83154 8.59124C5.06263 8.89837 5.44314 9.05723 5.82733 8.99755L7.05874 8.80974L11.1822 12.9332C11.1199 12.9956 9.43754 14.6779 9.49137 14.6241C9.2838 14.8317 9.2838 15.1679 9.49137 15.3755C9.69893 15.5831 10.0352 15.5831 10.2428 15.3755L10.3643 15.254L11.3029 17.1481C11.3288 17.1995 11.3626 17.2467 11.4036 17.2877L14.1061 19.9902C15.4517 21.3369 17.6434 21.3363 18.9906 19.9902C20.3372 18.6431 20.3372 16.4522 18.9906 15.1057ZM5.68151 7.9535L4.0568 5.80832L4.78898 5.05797L6.9461 6.67594L6.77798 7.78018L5.68151 7.9535ZM18.5694 18.8176L16.2881 16.5363C15.5069 15.756 15.3525 14.5355 15.9579 13.5758L18.2392 15.8571C19.0417 16.6595 19.1488 17.8942 18.5694 18.8176ZM13.461 12.1572L15.0844 12.9616C14.5568 13.7685 14.4106 14.7313 14.6094 15.6111C13.7156 15.4097 12.758 15.5739 11.9649 16.0899L11.1576 14.4607L13.461 12.1572ZM14.8574 19.2388L12.5761 16.9574C13.499 16.3781 14.7334 16.4853 15.5367 17.2877L17.8179 19.5689C16.8943 20.1485 15.6599 20.0413 14.8574 19.2388Z" fill="#08203E"/>
</svg>
