<svg width="24" height="24" viewBox="0 0 24 24" fill="none" xmlns="http://www.w3.org/2000/svg">
<path d="M12.5121 18.934H5.81793C4.85139 18.934 4.06597 18.148 4.06597 17.1821V10.5294C4.06597 9.9446 4.35126 9.40421 4.83423 9.08105L10.2777 5.36524C10.8684 4.96335 11.6627 4.96335 12.2534 5.36465L17.7064 9.08282C18.1822 9.40421 18.4658 9.94578 18.4658 10.5294V11.2929C18.4658 11.5871 18.7043 11.8256 18.9984 11.8256C19.2926 11.8256 19.5311 11.5871 19.5311 11.2929V10.5294C19.5311 9.59124 19.0718 8.72 18.3042 8.20092L12.8524 4.48334C11.903 3.83879 10.6281 3.83879 9.67756 4.48393L4.23702 8.19856C3.46226 8.71704 3 9.58828 3 10.5294V17.1821C3 18.7358 4.26425 19.9994 5.81793 19.9994H12.5121C12.8062 19.9994 13.0448 19.7609 13.0448 19.4667C13.0448 19.1726 12.8062 18.934 12.5121 18.934Z" fill="#08203E"/>
<path d="M17.0118 12.7471C15.0118 12.7471 13.3848 14.3741 13.3848 16.3735C13.3848 18.3729 15.0118 19.9999 17.0118 19.9999C19.0117 19.9999 20.6388 18.3729 20.6388 16.3735C20.6388 14.3741 19.0117 12.7471 17.0118 12.7471ZM17.0118 18.9351C15.5996 18.9351 14.4507 17.7863 14.4507 16.3735C14.4507 14.9607 15.5996 13.8119 17.0118 13.8119C18.424 13.8119 19.5728 14.9607 19.5728 16.3735C19.5728 17.7863 18.424 18.9351 17.0118 18.9351Z" fill="#08203E"/>
<path d="M17.7298 15.4325L16.6395 16.3102L16.3791 15.9782C16.1968 15.7462 15.8636 15.7053 15.631 15.8876C15.3996 16.0693 15.3593 16.4038 15.541 16.6352L16.1347 17.3922C16.2223 17.5041 16.3513 17.5769 16.4928 17.5928C16.5129 17.5952 16.533 17.5964 16.5537 17.5964C16.6745 17.5964 16.7928 17.5555 16.8875 17.4786L18.398 16.2617C18.6277 16.077 18.6632 15.742 18.4791 15.513C18.295 15.2845 17.9594 15.2478 17.7298 15.4325Z" fill="#08203E"/>
</svg>
