<svg width="24" height="24" viewBox="0 0 24 24" fill="none" xmlns="http://www.w3.org/2000/svg">
<path d="M7.11124 9.85706H4.17464C3.86311 9.85706 3.56433 9.98082 3.34404 10.2011C3.12376 10.4214 3 10.7202 3 11.0317L3 13.9683C3 14.2798 3.12376 14.5786 3.34404 14.7989C3.56433 15.0192 3.86311 15.1429 4.17464 15.1429H7.11124C7.42277 15.1429 7.72154 15.0192 7.94183 14.7989C8.16212 14.5786 8.28587 14.2798 8.28587 13.9683V11.0317C8.28587 10.7202 8.16212 10.4214 7.94183 10.2011C7.72154 9.98082 7.42277 9.85706 7.11124 9.85706ZM4.17464 13.9683V11.0317H7.11124V13.9683H4.17464ZM15.04 13.9683V11.0317C15.04 10.7202 14.9163 10.4214 14.696 10.2011C14.4757 9.98082 14.1769 9.85706 13.8654 9.85706H10.9288C10.6173 9.85706 10.3185 9.98082 10.0982 10.2011C9.87793 10.4214 9.75417 10.7202 9.75417 11.0317V13.9683C9.75417 14.2798 9.87793 14.5786 10.0982 14.7989C10.3185 15.0192 10.6173 15.1429 10.9288 15.1429H13.8654C14.1769 15.1429 14.4757 15.0192 14.696 14.7989C14.9163 14.5786 15.04 14.2798 15.04 13.9683ZM10.9288 11.0317H13.8654V13.9683H10.9288V11.0317ZM20.6196 9.85706H17.683C17.3714 9.85706 17.0727 9.98082 16.8524 10.2011C16.6321 10.4214 16.5083 10.7202 16.5083 11.0317V13.9683C16.5083 14.2798 16.6321 14.5786 16.8524 14.7989C17.0727 15.0192 17.3714 15.1429 17.683 15.1429H20.6196C20.9311 15.1429 21.2299 15.0192 21.4502 14.7989C21.6705 14.5786 21.7942 14.2798 21.7942 13.9683V11.0317C21.7942 10.7202 21.6705 10.4214 21.4502 10.2011C21.2299 9.98082 20.9311 9.85706 20.6196 9.85706ZM17.683 13.9683V11.0317H20.6196V13.9683H17.683ZM11.9067 7.04674C11.8357 6.99286 11.7539 6.95501 11.6668 6.9358C11.5798 6.91658 11.4897 6.91646 11.4026 6.93544C11.3155 6.95442 11.2336 6.99205 11.1624 7.04574C11.0913 7.09942 11.0326 7.16789 10.9905 7.24643C10.9212 7.38585 10.9102 7.54706 10.9597 7.69463C11.0093 7.8422 11.1154 7.96406 11.2548 8.03344L12.4294 8.62076C12.5523 8.68188 12.6928 8.69802 12.8264 8.66637C12.9599 8.63472 13.0782 8.55728 13.1606 8.4475L14.0416 7.27286C14.0879 7.21116 14.1216 7.14094 14.1407 7.06623C14.1598 6.99151 14.1641 6.91376 14.1532 6.83741C14.1423 6.76105 14.1164 6.6876 14.0771 6.62123C14.0378 6.55486 13.9858 6.49689 13.9241 6.45061C13.8519 6.39932 13.7695 6.36426 13.6824 6.34786C13.5954 6.33145 13.5058 6.33408 13.4199 6.35556C13.3339 6.37704 13.2537 6.41687 13.1846 6.47231C13.1155 6.52775 13.0592 6.59749 13.0197 6.67673C12.6838 5.77465 12.0421 5.01902 11.2063 4.54152C10.3705 4.06402 9.39363 3.89492 8.44596 4.0637C7.4983 4.23247 6.6399 4.72842 6.02035 5.46512C5.40081 6.20181 5.0594 7.13254 5.05562 8.09511C5.05562 8.25087 5.1175 8.40026 5.22764 8.5104C5.33778 8.62055 5.48717 8.68242 5.64294 8.68242C5.7987 8.68242 5.94809 8.62055 6.05823 8.5104C6.16838 8.40026 6.23026 8.25087 6.23026 8.09511C6.23222 7.41024 6.4735 6.74759 6.91235 6.2218C7.3512 5.69601 7.96003 5.34014 8.63351 5.21576C9.30699 5.09138 10.0028 5.2063 10.6005 5.54065C11.1982 5.875 11.6602 6.40775 11.9067 7.04674ZM19.9148 16.5525C19.8324 16.4427 19.7141 16.3653 19.5805 16.3336C19.4469 16.302 19.3065 16.3181 19.1836 16.3792L18.0089 16.9666C17.8696 17.0359 17.7635 17.1578 17.7139 17.3054C17.6644 17.4529 17.6754 17.6141 17.7447 17.7536C17.7868 17.8321 17.8454 17.9006 17.9166 17.9543C17.9877 18.008 18.0697 18.0456 18.1567 18.0646C18.2438 18.0835 18.334 18.0834 18.421 18.0642C18.508 18.045 18.5899 18.0071 18.6609 17.9533C18.4144 18.5922 17.9524 19.125 17.3546 19.4593C16.7569 19.7937 16.0612 19.9086 15.3877 19.7842C14.7142 19.6599 14.1054 19.304 13.6665 18.7782C13.2277 18.2524 12.9864 17.5898 12.9844 16.9049C12.9844 16.7491 12.9226 16.5997 12.8124 16.4896C12.7023 16.3795 12.5529 16.3176 12.3971 16.3176C12.2413 16.3176 12.092 16.3795 11.9818 16.4896C11.8717 16.5997 11.8098 16.7491 11.8098 16.9049C11.8136 17.8675 12.155 18.7982 12.7745 19.5349C13.3941 20.2716 14.2525 20.7675 15.2001 20.9363C16.1478 21.1051 17.1246 20.936 17.9604 20.4585C18.7962 19.981 19.438 19.2253 19.7738 18.3233C19.8134 18.4025 19.8697 18.4722 19.9388 18.5277C20.0079 18.5831 20.0881 18.623 20.174 18.6444C20.26 18.6659 20.3495 18.6685 20.4366 18.6521C20.5236 18.6357 20.6061 18.6007 20.6783 18.5494C20.74 18.5031 20.792 18.4451 20.8313 18.3788C20.8706 18.3124 20.8964 18.2389 20.9073 18.1626C20.9182 18.0862 20.914 18.0085 20.8949 17.9338C20.8757 17.8591 20.8421 17.7888 20.7958 17.7271L19.9148 16.5525ZM18.4436 8.50916C18.5433 8.60899 18.6757 8.66957 18.8164 8.67982C18.9571 8.69006 19.0969 8.64929 19.21 8.56496L21.5593 6.803C21.621 6.75673 21.673 6.69875 21.7123 6.63238C21.7516 6.56602 21.7774 6.49256 21.7883 6.41621C21.7992 6.33985 21.795 6.2621 21.7758 6.18739C21.7567 6.11267 21.723 6.04246 21.6768 5.98076C21.6305 5.91905 21.5725 5.86707 21.5061 5.82777C21.4398 5.78848 21.3663 5.76264 21.29 5.75173C21.2136 5.74082 21.1359 5.74506 21.0611 5.7642C20.9864 5.78334 20.9162 5.81702 20.8545 5.86329L18.9134 7.33159L18.3907 6.80007C18.2783 6.70385 18.1338 6.65357 17.986 6.65928C17.8382 6.66499 17.698 6.72626 17.5934 6.83086C17.4888 6.93546 17.4275 7.07568 17.4218 7.22349C17.4161 7.37131 17.4664 7.51583 17.5626 7.62819L18.4436 8.50916ZM7.16997 17.316L5.99533 16.435C5.89367 16.3588 5.77002 16.3176 5.64294 16.3176C5.51586 16.3176 5.39221 16.3588 5.29055 16.435L4.11591 17.316C3.99129 17.4095 3.90891 17.5486 3.88688 17.7028C3.86485 17.857 3.90498 18.0137 3.99844 18.1383C4.28329 18.5259 4.76196 18.3732 5.05562 18.0795V19.8415C5.05562 19.9973 5.1175 20.1466 5.22764 20.2568C5.33778 20.3669 5.48717 20.4288 5.64294 20.4288C5.7987 20.4288 5.94809 20.3669 6.05823 20.2568C6.16838 20.1466 6.23026 19.9973 6.23026 19.8415V18.0795C6.52392 18.3732 7.00258 18.5259 7.28743 18.1383C7.38089 18.0137 7.42102 17.857 7.39899 17.7028C7.37696 17.5486 7.29458 17.4095 7.16997 17.316Z" fill="#08203E"/>
<path d="M3.375 24C3.78921 24 4.125 23.6642 4.125 23.25C4.125 22.8358 3.78921 22.5 3.375 22.5C2.96079 22.5 2.625 22.8358 2.625 23.25C2.625 23.6642 2.96079 24 3.375 24Z" fill="#08203E"/>
</svg>
