<svg width="24" height="24" viewBox="0 0 24 24" fill="none" xmlns="http://www.w3.org/2000/svg">
<path d="M10.7553 15.6238C10.6519 15.6237 10.5498 15.6005 10.4566 15.5556C10.3634 15.5108 10.2815 15.4457 10.2169 15.365L6.74147 11.044C6.62706 10.9007 6.57423 10.7179 6.59462 10.5357C6.61501 10.3535 6.70694 10.1869 6.85019 10.0725C6.99344 9.95806 7.17627 9.90523 7.35847 9.92562C7.54066 9.94601 7.7073 10.0379 7.82172 10.1812L10.6759 13.7256C11.9184 11.824 15.2419 7.28213 20.5465 4.81104C20.6292 4.76731 20.7199 4.74084 20.8131 4.73324C20.9063 4.72564 21.0001 4.73706 21.0888 4.76682C21.1775 4.79658 21.2592 4.84404 21.3289 4.90634C21.3987 4.96864 21.4551 5.04446 21.4946 5.12922C21.5342 5.21397 21.5561 5.30588 21.5591 5.39936C21.5621 5.49285 21.546 5.58596 21.5119 5.67305C21.4777 5.76013 21.4263 5.83937 21.3606 5.90596C21.2949 5.97254 21.2164 6.02509 21.1297 6.06039C14.8657 8.98015 11.3972 15.2028 11.3627 15.2649C11.3068 15.3625 11.2279 15.4449 11.1329 15.5051C11.0378 15.5652 10.9295 15.6013 10.8174 15.61L10.7553 15.6238Z" fill="#08203E"/>
<path d="M14.1717 20H7.83175C6.55029 20 5.32132 19.4909 4.41519 18.5848C3.50906 17.6787 3 16.4497 3 15.1682V8.83175C3 7.55029 3.50906 6.32132 4.41519 5.41519C5.32132 4.50906 6.55029 4 7.83175 4H14.1717C15.4532 4 16.6821 4.50906 17.5883 5.41519C18.4944 6.32132 19.0035 7.55029 19.0035 8.83175V15.1682C19.0035 16.4497 18.4944 17.6787 17.5883 18.5848C16.6821 19.4909 15.4532 20 14.1717 20ZM7.83175 5.3805C6.91642 5.3805 6.03858 5.74411 5.39135 6.39135C4.74411 7.03858 4.3805 7.91642 4.3805 8.83175V15.1682C4.3805 16.0836 4.74411 16.9614 5.39135 17.6087C6.03858 18.2559 6.91642 18.6195 7.83175 18.6195H14.1717C15.087 18.6195 15.9649 18.2559 16.6121 17.6087C17.2593 16.9614 17.623 16.0836 17.623 15.1682V8.83175C17.623 7.91642 17.2593 7.03858 16.6121 6.39135C15.9649 5.74411 15.087 5.3805 14.1717 5.3805H7.83175Z" fill="#08203E"/>
</svg>
