<svg width="24" height="24" viewBox="0 0 24 24" fill="none" xmlns="http://www.w3.org/2000/svg">
<path d="M19.5 10.6V7.1C19.5 6.54305 19.2788 6.0089 18.8849 5.61508C18.4911 5.22125 17.957 5 17.4 5H6.2C5.64305 5 5.1089 5.22125 4.71508 5.61508C4.32125 6.0089 4.1 6.54305 4.1 7.1V10.6C3.54305 10.6 3.0089 10.8212 2.61508 11.2151C2.22125 11.6089 2 12.143 2 12.7V16.9C2 17.457 2.22125 17.9911 2.61508 18.3849C3.0089 18.7788 3.54305 19 4.1 19H19.5C20.057 19 20.5911 18.7788 20.9849 18.3849C21.3787 17.9911 21.6 17.457 21.6 16.9V12.7C21.6 12.143 21.3787 11.6089 20.9849 11.2151C20.5911 10.8212 20.057 10.6 19.5 10.6ZM5.5 7.1C5.5 6.91435 5.57375 6.7363 5.70503 6.60503C5.8363 6.47375 6.01435 6.4 6.2 6.4H17.4C17.5857 6.4 17.7637 6.47375 17.895 6.60503C18.0263 6.7363 18.1 6.91435 18.1 7.1V10.6C17.543 10.6 17.0089 10.8212 16.6151 11.2151C16.2212 11.6089 16 12.143 16 12.7V13.4H7.6V12.7C7.6 12.143 7.37875 11.6089 6.98492 11.2151C6.5911 10.8212 6.05695 10.6 5.5 10.6V7.1ZM20.2 16.9C20.2 17.0857 20.1263 17.2637 19.995 17.395C19.8637 17.5263 19.6857 17.6 19.5 17.6H4.1C3.91435 17.6 3.7363 17.5263 3.60503 17.395C3.47375 17.2637 3.4 17.0857 3.4 16.9V12.7C3.4 12.5143 3.47375 12.3363 3.60503 12.205C3.7363 12.0737 3.91435 12 4.1 12H5.5C5.68565 12 5.8637 12.0737 5.99497 12.205C6.12625 12.3363 6.2 12.5143 6.2 12.7V14.8H17.4V12.7C17.4 12.5143 17.4737 12.3363 17.605 12.205C17.7363 12.0737 17.9143 12 18.1 12H19.5C19.6857 12 19.8637 12.0737 19.995 12.205C20.1263 12.3363 20.2 12.5143 20.2 12.7V16.9Z" fill="#08203E"/>
</svg>
