<svg width="24" height="24" viewBox="0 0 24 24" fill="none" xmlns="http://www.w3.org/2000/svg">
<path fill-rule="evenodd" clip-rule="evenodd" d="M14.25 4.5C13.0073 4.5 12 5.50736 12 6.75C12 7.99268 13.0073 9 14.25 9C15.4927 9 16.5 7.99268 16.5 6.75C16.5 5.50736 15.4927 4.5 14.25 4.5ZM13.5 6.75C13.5 6.33579 13.8358 6 14.25 6C14.6642 6 15 6.33579 15 6.75C15 7.16421 14.6642 7.5 14.25 7.5C13.8358 7.5 13.5 7.16421 13.5 6.75ZM7.5 9C7.5 7.75732 8.50732 6.75 9.75 6.75C10.9927 6.75 12 7.75732 12 9C12 10.2427 10.9927 11.25 9.75 11.25C8.50732 11.25 7.5 10.2427 7.5 9ZM9.75 8.25C9.33577 8.25 9 8.58577 9 9C9 9.41423 9.33577 9.75 9.75 9.75C10.1642 9.75 10.5 9.41423 10.5 9C10.5 8.58577 10.1642 8.25 9.75 8.25ZM9 12C7.75732 12 6.75 13.0073 6.75 14.25C6.75 15.4927 7.75732 16.5 9 16.5C10.2427 16.5 11.25 15.4927 11.25 14.25C11.25 13.0073 10.2427 12 9 12ZM8.25 14.25C8.25 13.8358 8.58578 13.5 9 13.5C9.41423 13.5 9.75 13.8358 9.75 14.25C9.75 14.6642 9.41423 15 9 15C8.58578 15 8.25 14.6642 8.25 14.25Z" fill="#08203E"/>
<path fill-rule="evenodd" clip-rule="evenodd" d="M13.5 2.25C8.11522 2.25 3.75 6.61522 3.75 12C3.75 17.3848 8.11522 21.75 13.5 21.75C15.3425 21.75 17.6073 21.5107 19.0216 20.0153C19.5591 19.447 19.8463 18.8094 19.6334 18.1104C19.5418 17.8094 19.373 17.5611 19.2084 17.3622C19.0442 17.1637 18.8494 16.9742 18.6726 16.8046L18.6395 16.7729C17.9151 16.0781 17.25 15.4403 17.25 14.25V14.2519L17.2502 14.251C17.2508 14.2458 17.2543 14.2165 17.2732 14.1568C17.2963 14.0836 17.3352 13.9877 17.3943 13.8655C17.5139 13.6185 17.6888 13.3196 17.9089 12.9599C17.9826 12.8394 18.0608 12.7131 18.1423 12.5816C18.5333 11.9502 18.9983 11.1995 19.3883 10.4104C19.8595 9.45675 20.2613 8.3718 20.2984 7.26135C20.3365 6.11865 19.9858 4.97878 19.015 3.97784C17.5892 2.5077 15.3522 2.25 13.5 2.25ZM5.25 12C5.25 7.44365 8.94368 3.75 13.5 3.75C15.328 3.75 16.9806 4.03473 17.9384 5.02216C18.6042 5.70872 18.8248 6.44385 18.7992 7.21131C18.7725 8.01105 18.4756 8.87138 18.0434 9.74588C17.6884 10.4643 17.2693 11.1416 16.879 11.7722C16.7942 11.9093 16.7106 12.0442 16.6294 12.1768C16.4085 12.5379 16.1989 12.8923 16.0441 13.2121C15.9004 13.5091 15.75 13.8808 15.75 14.25C15.75 16.0896 16.8396 17.129 17.542 17.799L17.5911 17.8458L17.6341 17.887C17.8153 18.0608 17.9506 18.1952 18.0527 18.3185C18.1544 18.4414 18.188 18.5128 18.1985 18.5474C18.2032 18.5631 18.2072 18.5761 18.1929 18.6171C18.1723 18.6758 18.1102 18.7961 17.9318 18.9847C16.9936 19.9766 15.3377 20.25 13.5 20.25C8.94368 20.25 5.25 16.5563 5.25 12Z" fill="#08203E"/>
</svg>
