<svg width="24" height="24" viewBox="0 0 24 24" fill="none" xmlns="http://www.w3.org/2000/svg">
<path fill-rule="evenodd" clip-rule="evenodd" d="M20.9262 15.999V8.00101C20.9262 7.28601 20.5452 6.62601 19.9262 6.26901L13.0002 2.27001C12.3812 1.91301 11.6192 1.91301 11.0002 2.27001L4.07422 6.26901C3.45522 6.62601 3.07422 7.28701 3.07422 8.00101V15.998C3.07422 16.713 3.45522 17.373 4.07422 17.73L11.0002 21.73C11.6192 22.087 12.3812 22.087 13.0002 21.73L19.9262 17.731C20.5452 17.374 20.9262 16.713 20.9262 15.999Z" stroke="#64768C" stroke-width="1.5" stroke-linecap="round" stroke-linejoin="round"/>
<path d="M6.16992 12.63L9.16992 14.37" stroke="#64768C" stroke-width="1.5" stroke-linecap="round" stroke-linejoin="round"/>
<path d="M3.3418 7.00101L11.9998 12L20.6578 7.00101" stroke="#64768C" stroke-width="1.5" stroke-linecap="round" stroke-linejoin="round"/>
<path d="M12 22V12" stroke="#64768C" stroke-width="1.5" stroke-linecap="round" stroke-linejoin="round"/>
<path d="M7.66992 9.50001L16.5999 4.35001" stroke="#64768C" stroke-width="1.5" stroke-linecap="round" stroke-linejoin="round"/>
</svg>
