<svg width="80" height="80" viewBox="0 0 80 80" fill="none" xmlns="http://www.w3.org/2000/svg">
<path d="M6.78058 77.376L51.475 60.9136C52.747 60.8528 53.7726 60.4368 54.5262 59.664C55.3118 58.8592 55.7022 57.7696 55.7022 56.424C55.7022 54.7152 55.0718 52.5952 53.8126 50.1264C53.2122 48.9635 52.5477 47.8348 51.8222 46.7456C54.1901 45.7498 56.7165 45.1836 59.283 45.0736C63.2707 44.9172 67.2265 45.8427 70.731 47.752C71.0108 47.9037 71.3395 47.938 71.6447 47.8474C71.9498 47.7568 72.2065 47.5487 72.3582 47.2688C72.5099 46.9889 72.5442 46.6603 72.4536 46.3551C72.363 46.05 72.1548 45.7933 71.875 45.6416C67.9883 43.5268 63.602 42.5023 59.1806 42.6768C56.1555 42.8047 53.182 43.5045 50.4174 44.7392C48.5048 42.1835 46.3926 39.7834 44.1006 37.5616C43.5486 37.024 42.9923 36.5003 42.4318 35.9904C44.4983 33.9348 46.1569 31.5064 47.3198 28.8336C50.139 22.3536 49.259 16.4272 48.4846 13.472C48.4016 13.1668 48.2014 12.9067 47.9276 12.7483C47.6539 12.5898 47.3286 12.5459 47.0226 12.6261C46.7166 12.7062 46.4547 12.9039 46.2937 13.1762C46.1327 13.4485 46.0857 13.7733 46.163 14.08C46.859 16.736 47.6494 22.0592 45.1198 27.8768C44.0544 30.3227 42.5273 32.5403 40.6222 34.408C37.4478 31.7328 34.2302 29.5712 31.2958 28.1664C26.8286 26.0272 23.5262 25.8624 21.7438 27.6896C20.9902 28.4624 20.5998 29.4992 20.571 30.7728L10.931 59.104V59.1056L5.23018 75.864C5.15737 76.0785 5.14676 76.3093 5.19959 76.5295C5.25241 76.7498 5.36651 76.9506 5.52868 77.1088C5.69086 77.267 5.89449 77.376 6.11603 77.4233C6.33757 77.4706 6.56797 77.4542 6.78058 77.376ZM23.4622 29.3664C23.8078 29.0112 24.3806 28.8368 25.1294 28.8368C26.4094 28.8368 28.2046 29.3472 30.259 30.3296C32.9342 31.6112 35.8766 33.576 38.803 36.0128C37.5451 37.0093 36.1805 37.8631 34.7342 38.5584C34.5896 38.6244 34.4597 38.7185 34.3518 38.8352C34.2439 38.9518 34.1603 39.0888 34.1057 39.238C34.0512 39.3873 34.0268 39.5459 34.0341 39.7046C34.0413 39.8634 34.08 40.0191 34.1479 40.1627C34.2158 40.3064 34.3116 40.4351 34.4297 40.5415C34.5477 40.6478 34.6858 40.7297 34.8357 40.7823C34.9857 40.8349 35.1446 40.8571 35.3032 40.8478C35.4618 40.8385 35.617 40.7978 35.7598 40.728C37.5066 39.8879 39.146 38.8409 40.643 37.6096C41.2398 38.1488 41.8334 38.7056 42.4238 39.28C44.5247 41.3166 46.4694 43.5084 48.2414 45.8368C46.5447 46.7966 44.9628 47.9464 43.5262 49.264C43.3004 49.4816 43.1687 49.7789 43.1593 50.0924C43.15 50.4058 43.2637 50.7105 43.4762 50.9412C43.6886 51.1718 43.983 51.3101 44.2961 51.3265C44.6093 51.3429 44.9164 51.236 45.1518 51.0288C46.515 49.778 48.0227 48.6946 49.643 47.8016C50.3881 48.8986 51.0666 50.0393 51.675 51.2176C53.3134 54.4304 53.747 57.0256 52.8078 57.9888C51.8686 58.952 49.2654 58.5824 46.011 57.024C42.2238 55.2096 37.9038 52.032 33.8462 48.0752C29.7886 44.1184 26.5038 39.8768 24.5966 36.136C22.9566 32.9232 22.523 30.328 23.4622 29.3664ZM21.5694 35.288C21.819 35.9067 22.115 36.5531 22.4574 37.2272C24.4814 41.1952 27.931 45.6576 32.171 49.792C36.411 53.9264 40.9582 57.2656 44.9742 59.1888C45.6574 59.5152 46.3102 59.7936 46.9374 60.0288L34.563 64.5856C30.0718 62.0704 26.3998 58.7104 23.6494 54.584C21.333 51.0905 19.7275 47.1749 18.9246 43.0608L21.5694 35.288ZM12.2846 62.5808C12.675 63.2688 13.0883 63.9408 13.5246 64.5968C14.9588 66.7498 16.6407 68.7271 18.5358 70.488L8.31338 74.2544L12.2846 62.5808Z" fill="#08203E"/>
<path d="M27.355 14.2958L26.4782 19.4158C26.4402 19.6365 26.4648 19.8634 26.5491 20.0709C26.6334 20.2783 26.774 20.4581 26.9552 20.5898C27.1363 20.7214 27.3506 20.7998 27.574 20.816C27.7973 20.8322 28.0207 20.7856 28.219 20.6814L32.8158 18.2638L37.4142 20.6814C37.6124 20.7856 37.8358 20.8322 38.0591 20.816C38.2825 20.7998 38.4968 20.7214 38.6779 20.5898C38.8591 20.4581 38.9997 20.2783 39.084 20.0709C39.1683 19.8634 39.1929 19.6365 39.155 19.4158L38.2782 14.2958L41.9966 10.6702C42.1567 10.514 42.2701 10.3161 42.3237 10.0988C42.3773 9.88159 42.3692 9.65367 42.3001 9.44083C42.231 9.22798 42.1038 9.03868 41.9329 8.89432C41.7619 8.74995 41.554 8.65627 41.3326 8.62385L36.1918 7.87665L33.8926 3.21905C33.7934 3.0183 33.6401 2.84928 33.45 2.7311C33.2598 2.61292 33.0404 2.55029 32.8166 2.55029C32.5927 2.55029 32.3733 2.61292 32.1831 2.7311C31.993 2.84928 31.8397 3.0183 31.7406 3.21905L29.4414 7.87665L24.3006 8.62385C24.0791 8.65627 23.8712 8.74995 23.7002 8.89432C23.5293 9.03868 23.4021 9.22798 23.333 9.44083C23.2639 9.65367 23.2558 9.88159 23.3094 10.0988C23.363 10.3161 23.4764 10.514 23.6366 10.6702L27.355 14.2958ZM73.8062 10.5838L68.6654 9.83665L66.3661 5.17905C66.267 4.9783 66.1137 4.80928 65.9236 4.6911C65.7334 4.57292 65.514 4.51029 65.2901 4.51029C65.0663 4.51029 64.8469 4.57292 64.6567 4.6911C64.4666 4.80928 64.3133 4.9783 64.2141 5.17905L61.915 9.83665L56.7742 10.5838C56.5527 10.6163 56.3448 10.71 56.1738 10.8543C56.0029 10.9987 55.8757 11.188 55.8066 11.4008C55.7375 11.6137 55.7294 11.8416 55.783 12.0588C55.8366 12.2761 55.95 12.474 56.1101 12.6302L59.8302 16.2558L58.9518 21.3758C58.9138 21.5965 58.9384 21.8234 59.0227 22.0309C59.107 22.2383 59.2476 22.4181 59.4288 22.5498C59.6099 22.6814 59.8242 22.7598 60.0476 22.776C60.2709 22.7922 60.4943 22.7456 60.6925 22.6414L65.291 20.2238L69.8877 22.6414C70.086 22.7456 70.3094 22.7922 70.5327 22.776C70.7561 22.7598 70.9704 22.6814 71.1515 22.5498C71.3327 22.4181 71.4733 22.2383 71.5576 22.0309C71.6419 21.8234 71.6665 21.5965 71.6285 21.3758L70.7518 16.2558L74.4718 12.6302C74.632 12.4739 74.7453 12.2759 74.7988 12.0585C74.8524 11.8411 74.8441 11.6131 74.7748 11.4002C74.7056 11.1873 74.5782 10.9981 74.407 10.8538C74.2358 10.7095 74.0277 10.616 73.8062 10.5838ZM53.3549 35.6742C53.6157 35.6745 53.8694 35.5893 54.0772 35.4317C55.5902 34.289 58.7742 32.3458 63.0991 32.172C65.6651 32.0768 68.2164 32.5996 70.5381 33.6963C70.6807 33.7636 70.8351 33.8021 70.9925 33.8096C71.1499 33.8172 71.3072 33.7937 71.4556 33.7405C71.6039 33.6872 71.7403 33.6053 71.857 33.4993C71.9736 33.3934 72.0683 33.2655 72.1355 33.123C72.2027 32.9804 72.2413 32.8261 72.2488 32.6686C72.2564 32.5112 72.2329 32.3539 72.1797 32.2055C72.1264 32.0572 72.0445 31.9208 71.9385 31.8042C71.8326 31.6875 71.7047 31.5928 71.5622 31.5256C68.8905 30.2638 65.9547 29.663 63.0022 29.7739C58.0238 29.9739 54.3668 32.2048 52.6298 33.5166C52.429 33.6683 52.281 33.8792 52.2066 34.1196C52.1323 34.3599 52.1353 34.6176 52.2154 34.8562C52.2955 35.0947 52.4485 35.302 52.6529 35.4488C52.8572 35.5956 53.1025 35.6745 53.3541 35.6742H53.3549Z" fill="#AD996F"/>
</svg>
