<svg width="18" height="18" viewBox="0 0 18 18" fill="none" xmlns="http://www.w3.org/2000/svg">
<path d="M8.99949 4.78124C8.88549 4.78124 8.79324 4.87349 8.79474 4.98749C8.79474 5.10149 8.88699 5.19374 9.00099 5.19374C9.11499 5.19374 9.20724 5.10149 9.20724 4.98749C9.20574 4.87349 9.11424 4.78124 8.99949 4.78124" stroke="#64768C" stroke-width="1.5" stroke-linecap="round" stroke-linejoin="round"/>
<path d="M5.19318 8.99924C5.19318 8.88524 5.10093 8.79299 4.98768 8.79449C4.87368 8.79449 4.78143 8.88674 4.78143 9.00074C4.78143 9.11474 4.87368 9.20699 4.98768 9.20699C5.10168 9.20699 5.19318 9.11399 5.19318 8.99924" stroke="#64768C" stroke-width="1.5" stroke-linecap="round" stroke-linejoin="round"/>
<path d="M11.9827 6.01649C11.9024 5.93624 11.7719 5.93624 11.6924 6.01724C11.6122 6.09749 11.6122 6.22799 11.6924 6.30824C11.7727 6.38849 11.9032 6.38849 11.9834 6.30824C12.0637 6.22724 12.0637 6.09749 11.9827 6.01649" stroke="#64768C" stroke-width="1.5" stroke-linecap="round" stroke-linejoin="round"/>
<path d="M6.30788 11.6918C6.22763 11.6115 6.09713 11.6115 6.01763 11.6925C5.93738 11.7728 5.93738 11.9033 6.01763 11.9835C6.09788 12.0638 6.22838 12.0638 6.30863 11.9835C6.38888 11.9033 6.38888 11.7728 6.30788 11.6918" stroke="#64768C" stroke-width="1.5" stroke-linecap="round" stroke-linejoin="round"/>
<path d="M6.30803 6.30749C6.38828 6.22724 6.38828 6.09674 6.30728 6.01724C6.22703 5.93699 6.09653 5.93699 6.01628 6.01724C5.93603 6.09749 5.93603 6.22799 6.01628 6.30824C6.09653 6.38849 6.22703 6.38849 6.30803 6.30749" stroke="#64768C" stroke-width="1.5" stroke-linecap="round" stroke-linejoin="round"/>
<path fill-rule="evenodd" clip-rule="evenodd" d="M8.99966 15.75C5.20841 15.75 2.14691 12.624 2.25266 8.80875C2.35016 5.28675 5.28641 2.3505 8.80841 2.253C12.6237 2.14725 15.7497 5.20875 15.7497 9V9.75C15.7497 10.5787 15.0784 11.25 14.2497 11.25H12.7024C11.7057 11.25 10.9864 12.204 11.2602 13.1617L11.4529 13.8375C11.7274 14.796 11.0074 15.75 10.0114 15.75H8.99966Z" stroke="#64768C" stroke-width="1.5" stroke-linecap="round" stroke-linejoin="round"/>
</svg>
