<svg width="23" height="22" viewBox="0 0 23 22" fill="none" xmlns="http://www.w3.org/2000/svg">
<path d="M11.4995 5.8437C11.3601 5.8437 11.2474 5.95645 11.2492 6.09578C11.2492 6.23512 11.362 6.34787 11.5013 6.34787C11.6406 6.34787 11.7534 6.23512 11.7534 6.09578C11.7516 5.95645 11.6397 5.8437 11.4995 5.8437" stroke="#33415C" stroke-width="1.5" stroke-linecap="round" stroke-linejoin="round"/>
<path d="M6.84668 10.999C6.84668 10.8597 6.73393 10.7469 6.59551 10.7487C6.45618 10.7487 6.34343 10.8615 6.34343 11.0008C6.34343 11.1402 6.45618 11.2529 6.59551 11.2529C6.73484 11.2529 6.84668 11.1392 6.84668 10.999" stroke="#33415C" stroke-width="1.5" stroke-linecap="round" stroke-linejoin="round"/>
<path d="M15.146 7.35347C15.048 7.25539 14.8885 7.25539 14.7913 7.35439C14.6932 7.45247 14.6932 7.61197 14.7913 7.71005C14.8894 7.80814 15.0489 7.80814 15.147 7.71005C15.245 7.61105 15.245 7.45247 15.146 7.35347" stroke="#33415C" stroke-width="1.5" stroke-linecap="round" stroke-linejoin="round"/>
<path d="M8.20953 14.29C8.11144 14.1919 7.95194 14.1919 7.85478 14.2909C7.75669 14.389 7.75669 14.5485 7.85478 14.6466C7.95286 14.7447 8.11236 14.7447 8.21044 14.6466C8.30853 14.5485 8.30853 14.389 8.20953 14.29" stroke="#33415C" stroke-width="1.5" stroke-linecap="round" stroke-linejoin="round"/>
<path d="M8.20992 7.70928C8.30801 7.6112 8.30801 7.4517 8.20901 7.35453C8.11092 7.25645 7.95142 7.25645 7.85334 7.35453C7.75526 7.45262 7.75526 7.61212 7.85334 7.7102C7.95142 7.80828 8.11092 7.80828 8.20992 7.70928" stroke="#33415C" stroke-width="1.5" stroke-linecap="round" stroke-linejoin="round"/>
<path fill-rule="evenodd" clip-rule="evenodd" d="M11.4996 19.2501C6.86583 19.2501 3.124 15.4294 3.25325 10.7663C3.37242 6.46166 6.96117 2.87291 11.2658 2.75374C15.9289 2.62449 19.7496 6.36632 19.7496 11.0001V11.9167C19.7496 12.9297 18.9292 13.7501 17.9163 13.7501H16.0252C14.8069 13.7501 13.9278 14.9161 14.2624 16.0867L14.498 16.9126C14.8335 18.0841 13.9535 19.2501 12.7362 19.2501H11.4996Z" stroke="#33415C" stroke-width="1.5" stroke-linecap="round" stroke-linejoin="round"/>
</svg>
