<svg width="22" height="22" viewBox="0 0 22 22" fill="none" xmlns="http://www.w3.org/2000/svg">
<path d="M2.75 19.2499V10.9999C2.75 10.4937 3.16041 10.0833 3.66667 10.0833H6.41667" stroke="#33415C" stroke-width="1.5" stroke-linecap="round" stroke-linejoin="round"/>
<path d="M10.083 7.33332V4.12623C10.083 3.67526 10.3041 3.25296 10.6748 2.99608C11.0455 2.73921 11.5185 2.68043 11.9408 2.83877L18.6549 5.35656C19.0126 5.49072 19.2497 5.83275 19.2497 6.21486V19.25" stroke="#33415C" stroke-width="1.5" stroke-linecap="round" stroke-linejoin="round"/>
<path d="M6.41699 19.2499V8.24992C6.41699 7.74366 6.8274 7.33325 7.33366 7.33325H13.7503C14.2566 7.33325 14.667 7.74366 14.667 8.24992V19.2499" stroke="#33415C" stroke-width="1.5" stroke-linecap="round" stroke-linejoin="round"/>
<path d="M20.1663 19.2501H1.83301" stroke="#33415C" stroke-width="1.5" stroke-linecap="round" stroke-linejoin="round"/>
<path d="M9.16699 16.0416H11.917" stroke="#33415C" stroke-width="1.5" stroke-linecap="round" stroke-linejoin="round"/>
<path d="M9.16699 13.2916H11.917" stroke="#33415C" stroke-width="1.5" stroke-linecap="round" stroke-linejoin="round"/>
<path d="M9.16699 10.5416H11.917" stroke="#33415C" stroke-width="1.5" stroke-linecap="round" stroke-linejoin="round"/>
</svg>
