<svg width="22" height="22" viewBox="0 0 22 22" fill="none" xmlns="http://www.w3.org/2000/svg">
<path d="M14.6688 16.961H7.48828" stroke="#33415C" stroke-width="1.5" stroke-linecap="round" stroke-linejoin="round"/>
<path d="M17.4155 16.9609H19.2533C19.7597 16.9609 20.1703 16.5503 20.1703 16.0439V10.4364C20.1703 10.2032 20.1258 9.97218 20.0392 9.75566L18.7968 6.65059C18.5183 5.95433 17.8439 5.4978 17.094 5.4978H13.751" stroke="#33415C" stroke-width="1.5" stroke-linecap="round" stroke-linejoin="round"/>
<path d="M20.1701 11.9172H16.9605C16.7072 11.9172 16.502 11.7119 16.502 11.4587V8.24902H19.4365" stroke="#33415C" stroke-width="1.5" stroke-linecap="round" stroke-linejoin="round"/>
<path d="M17.0133 15.992C17.4067 16.3854 17.5244 16.977 17.3115 17.4911C17.0987 18.0051 16.5971 18.3403 16.0407 18.3403C15.4844 18.3403 14.9828 18.0052 14.7698 17.4912C14.5569 16.9772 14.6745 16.3855 15.0679 15.9921L15.068 15.992C15.326 15.734 15.6758 15.5891 16.0407 15.5891C16.4055 15.5891 16.7553 15.734 17.0133 15.992V15.992" stroke="#33415C" stroke-width="1.5" stroke-linecap="round" stroke-linejoin="round"/>
<path d="M6.92539 15.9921C7.31882 16.3855 7.43654 16.9771 7.22365 17.4912C7.01077 18.0052 6.5092 18.3404 5.95283 18.3404C5.39647 18.3404 4.89486 18.0053 4.68193 17.4913C4.46899 16.9773 4.58664 16.3856 4.98003 15.9922L4.98031 15.9919C5.23825 15.734 5.5881 15.5891 5.95288 15.5891C6.31766 15.5891 6.66748 15.7341 6.92537 15.9921V15.9921" stroke="#33415C" stroke-width="1.5" stroke-linecap="round" stroke-linejoin="round"/>
<path d="M4.58122 16.961H2.74713C2.24065 16.961 1.83008 16.5504 1.83008 16.044V4.58087C1.83008 4.0744 2.24065 3.66382 2.74713 3.66382H12.8347C13.3411 3.66382 13.7517 4.0744 13.7517 4.58087V12.8343" stroke="#33415C" stroke-width="1.5" stroke-linecap="round" stroke-linejoin="round"/>
<path d="M13.7517 12.8343H1.83008" stroke="#33415C" stroke-width="1.5" stroke-linecap="round" stroke-linejoin="round"/>
</svg>
