<svg width="16" height="16" viewBox="0 0 16 16" fill="none" xmlns="http://www.w3.org/2000/svg">
<path d="M10.668 12.3352H5.4458" stroke="#33415C" stroke-linecap="round" stroke-linejoin="round"/>
<path d="M12.6661 12.3353H14.0026C14.371 12.3353 14.6696 12.0367 14.6696 11.6684V7.59028C14.6696 7.42067 14.6372 7.25263 14.5742 7.09516L13.6707 4.83692C13.4681 4.33056 12.9776 3.99854 12.4323 3.99854H10.001" stroke="#33415C" stroke-linecap="round" stroke-linejoin="round"/>
<path d="M14.6697 8.66705H12.3354C12.1513 8.66705 12.002 8.51775 12.002 8.33357V5.99927H14.1362" stroke="#33415C" stroke-linecap="round" stroke-linejoin="round"/>
<path d="M12.3729 11.6306C12.659 11.9168 12.7446 12.347 12.5898 12.7209C12.4349 13.0947 12.0702 13.3385 11.6655 13.3385C11.2609 13.3385 10.8961 13.0948 10.7412 12.721C10.5864 12.3472 10.6719 11.9169 10.958 11.6307L10.9581 11.6306C11.1457 11.443 11.4002 11.3376 11.6655 11.3376C11.9308 11.3376 12.1852 11.443 12.3729 11.6306V11.6306" stroke="#33415C" stroke-linecap="round" stroke-linejoin="round"/>
<path d="M5.03642 11.6305C5.32256 11.9166 5.40817 12.3469 5.25334 12.7207C5.09852 13.0945 4.73374 13.3383 4.32911 13.3383C3.92448 13.3384 3.55968 13.0946 3.40481 12.7208C3.24995 12.347 3.33552 11.9167 3.62162 11.6305L3.62182 11.6303C3.80941 11.4428 4.06385 11.3374 4.32914 11.3374C4.59444 11.3374 4.84885 11.4429 5.03641 11.6305V11.6305" stroke="#33415C" stroke-linecap="round" stroke-linejoin="round"/>
<path d="M3.3314 12.3352H1.99751C1.62917 12.3352 1.33057 12.0366 1.33057 11.6683V3.3315C1.33057 2.96315 1.62917 2.66455 1.99751 2.66455H9.3339C9.70224 2.66455 10.0008 2.96315 10.0008 3.3315V9.334" stroke="#33415C" stroke-linecap="round" stroke-linejoin="round"/>
<path d="M10.0008 9.33396H1.33057" stroke="#33415C" stroke-linecap="round" stroke-linejoin="round"/>
</svg>
