<svg width="13" height="13" viewBox="0 0 13 13" fill="none" xmlns="http://www.w3.org/2000/svg">
<path d="M12.1979 10.272C12.1513 10.7853 12.0253 11.266 11.8199 11.714L7.57792 12.624C7.62459 12.1013 7.75059 11.6207 7.95592 11.182L12.1979 10.272ZM7.57792 9.908V7.22L6.24792 7.486V8.998C6.24792 9.138 6.21059 9.25933 6.13592 9.362L5.44992 10.384C5.25392 10.6547 5.01126 10.818 4.72192 10.874L0.969922 11.672C1.00726 11.2333 1.13326 10.7527 1.34792 10.23L4.93192 9.474V7.78L1.58592 8.48C1.64192 7.95733 1.77259 7.48133 1.97792 7.052L4.93192 6.422V1.186C5.28659 0.738 5.72526 0.364666 6.24792 0.0659997V6.156L7.57792 5.862V1.83C7.95126 1.37267 8.38992 1.004 8.89392 0.724V5.582L12.1979 4.882C12.1513 5.386 12.0253 5.862 11.8199 6.31L8.89392 6.94V8.284L12.1979 7.584C12.1606 8.06933 12.0346 8.54533 11.8199 9.012L7.57792 9.908Z" fill="#768495"/>
</svg>
