<svg width="20" height="21" viewBox="0 0 20 21" fill="none" xmlns="http://www.w3.org/2000/svg">
<path fill-rule="evenodd" clip-rule="evenodd" d="M9.04646 11.4533C8.07146 10.4783 7.33646 9.38664 6.84813 8.27914C6.7448 8.04497 6.80563 7.77081 6.98646 7.58997L7.66896 6.90831C8.22813 6.34914 8.22813 5.55831 7.7398 5.06997L6.76146 4.09164C6.11063 3.44081 5.05563 3.44081 4.4048 4.09164L3.86146 4.63497C3.24396 5.25247 2.98646 6.14331 3.15313 7.02664C3.5648 9.20414 4.8298 11.5883 6.87063 13.6291C8.91146 15.67 11.2956 16.935 13.4731 17.3466C14.3565 17.5133 15.2473 17.2558 15.8648 16.6383L16.4073 16.0958C17.0581 15.445 17.0581 14.39 16.4073 13.7391L15.4298 12.7616C14.9415 12.2733 14.1498 12.2733 13.6623 12.7616L12.9098 13.515C12.729 13.6958 12.4548 13.7566 12.2206 13.6533C11.1131 13.1641 10.0215 12.4283 9.04646 11.4533Z" stroke="white" stroke-opacity="0.8" stroke-width="1.5" stroke-linecap="round" stroke-linejoin="round"/>
</svg>
