<svg width="102" height="36" viewBox="0 0 102 36" fill="none" xmlns="http://www.w3.org/2000/svg">
<path d="M26.8481 32.2753H28.9048V32.628H27.2059V33.7515H28.2416V34.1003H27.2059V35.5085H28.89V35.8652H26.8481V32.2753Z" fill="#08203E"/>
<path d="M26.9501 35.7603H28.7831V35.6145H27.098V33.9954H28.1337V33.8565H27.098V32.5241H28.7969V32.3802H26.9501V35.7603ZM28.992 35.9692H26.7402V32.1704H29.0068V32.734H27.3079V33.6475H28.3436V34.2053H27.3079V35.4046H28.992V35.9692Z" fill="#08203E"/>
<path d="M34.5285 32.2753H34.9473L35.8067 33.6736L36.6729 32.2753H37.0897L36.0195 34.0136L37.1567 35.8652H36.7409L35.8067 34.3595L34.8705 35.8652H34.4507L35.5958 34.0136L34.5285 32.2753Z" fill="#08203E"/>
<path d="M36.7973 35.7603H36.9678L35.8946 34.0141L36.8998 32.3802H36.7303L35.8039 33.8742L34.8875 32.3802H34.715L35.7172 34.0141L34.6372 35.7603H34.8096L35.8049 34.161L36.7973 35.7603ZM37.3422 35.9692H36.681L35.8049 34.5581L34.9269 35.9692H34.2617L35.4709 34.0141L34.3406 32.1704H35.0047L35.8049 33.4751L36.613 32.1704H37.2742L36.141 34.0141L37.3422 35.9692Z" fill="#08203E"/>
<path d="M43.2117 32.6136V33.8336L43.8217 33.8405C44.0651 33.8405 44.2445 33.8178 44.3578 33.7735C44.4711 33.7291 44.5608 33.6572 44.6268 33.5567C44.6919 33.4552 44.7244 33.3448 44.7244 33.2236C44.7244 33.1004 44.6919 32.9891 44.6268 32.8895C44.5608 32.79 44.4751 32.7181 44.3686 32.6767C44.2622 32.6343 44.0888 32.6136 43.8464 32.6136H43.2117ZM42.854 32.2648H43.5675C43.9784 32.2648 44.2563 32.2825 44.3982 32.319C44.6042 32.3702 44.7717 32.4737 44.9018 32.6304C45.0309 32.7871 45.0949 32.9842 45.0949 33.2236C45.0949 33.4601 45.0318 33.6572 44.9057 33.8119C44.7786 33.9686 44.6032 34.0731 44.3814 34.1263C44.2179 34.1647 43.9144 34.1844 43.4689 34.1844H43.2117V35.8538H42.854V32.2648Z" fill="#08203E"/>
<path d="M43.3176 33.7304L43.8241 33.7353C44.0528 33.7353 44.2193 33.7156 44.3208 33.6762C44.4134 33.6407 44.4864 33.5826 44.5396 33.4998C44.5948 33.416 44.6204 33.3254 44.6204 33.2239C44.6204 33.1214 44.5948 33.0307 44.5396 32.947C44.4864 32.8652 44.4174 32.808 44.3317 32.7745C44.239 32.7381 44.0764 32.7193 43.8468 32.7193H43.3176V33.7304ZM43.8232 33.9452L43.1087 33.9373V32.5094H43.8468C44.107 32.5094 44.2893 32.5321 44.4085 32.5804C44.5337 32.6297 44.6381 32.7144 44.715 32.8326C44.7918 32.9499 44.8303 33.081 44.8303 33.2239C44.8303 33.3648 44.7918 33.4959 44.715 33.6141C44.6381 33.7333 44.5297 33.8201 44.3967 33.8723C44.2696 33.9206 44.0813 33.9452 43.8232 33.9452ZM42.9599 35.7496H43.1087V34.0802H43.4694C43.904 34.0802 44.2026 34.0615 44.3583 34.0251C44.5593 33.9768 44.712 33.8861 44.8244 33.7471C44.9367 33.6092 44.9909 33.4377 44.9909 33.2239C44.9909 33.009 44.9357 32.8366 44.8214 32.6967C44.7061 32.5577 44.5593 32.467 44.373 32.4207C44.242 32.3872 43.972 32.3705 43.5689 32.3705H42.9599V35.7496ZM43.3176 35.9595H42.75V32.1616H43.5689C43.9946 32.1616 44.2755 32.1793 44.4243 32.2177C44.6519 32.2739 44.8401 32.3902 44.982 32.5636C45.1269 32.74 45.2008 32.9617 45.2008 33.2239C45.2008 33.484 45.1289 33.7048 44.987 33.8792C44.8461 34.0526 44.6509 34.1699 44.4065 34.2281C44.2331 34.2694 43.9256 34.2891 43.4694 34.2891H43.3176V35.9595Z" fill="#08203E"/>
<path d="M50.9146 32.2753H52.9712V32.628H51.2723V33.7515H52.308V34.1003H51.2723V35.5085H52.9564V35.8652H50.9146V32.2753Z" fill="#08203E"/>
<path d="M51.0204 35.7603H52.8534V35.6145H51.1683V33.9954H52.204V33.8565H51.1683V32.5241H52.8672V32.3802H51.0204V35.7603ZM53.0623 35.9692H50.8105V32.1704H53.0771V32.734H51.3782V33.6475H52.4139V34.2053H51.3782V35.4046H53.0623V35.9692Z" fill="#08203E"/>
<path d="M59.1595 32.6261V33.846L59.7774 33.851C60.0158 33.851 60.1932 33.8283 60.3085 33.783C60.4238 33.7376 60.5135 33.6657 60.5766 33.5652C60.6406 33.4657 60.6721 33.3533 60.6721 33.2292C60.6721 33.1099 60.6396 33.0005 60.5746 32.903C60.5086 32.8034 60.4238 32.7335 60.3194 32.6911C60.2139 32.6477 60.0385 32.6261 59.7921 32.6261H59.1595ZM58.8018 32.2752H59.5152C59.9143 32.2752 60.1843 32.292 60.3272 32.3245C60.5391 32.3728 60.7125 32.4763 60.8466 32.6379C60.9806 32.7975 61.0476 32.9956 61.0476 33.2292C61.0476 33.4263 61.0013 33.5977 60.9096 33.7445C60.818 33.8914 60.6859 34.0027 60.5145 34.0796C60.342 34.1565 60.1932 34.1939 60.0671 34.1939L61.0959 35.8652H60.6564L59.6276 34.1939H59.1595V35.8652H58.8018V32.2752Z" fill="#08203E"/>
<path d="M59.2654 33.7421L59.7788 33.7461C60.0035 33.7461 60.169 33.7254 60.2715 33.6859C60.3661 33.6485 60.4371 33.5914 60.4883 33.5096C60.5425 33.4258 60.5681 33.3341 60.5681 33.2287C60.5681 33.1302 60.5425 33.0425 60.4883 32.9617C60.4351 32.8799 60.3661 32.8227 60.2804 32.7882C60.2163 32.7616 60.0794 32.731 59.7926 32.731H59.2654V33.7421ZM59.7788 33.956L59.0565 33.95V32.5221H59.7926C60.0547 32.5221 60.239 32.5458 60.3592 32.5941C60.4844 32.6443 60.5869 32.7291 60.6627 32.8454C60.7386 32.9607 60.778 33.0888 60.778 33.2287C60.778 33.3726 60.7406 33.5056 60.6657 33.6219C60.5918 33.7401 60.4834 33.8269 60.3474 33.8801C60.2213 33.9313 60.034 33.956 59.7788 33.956ZM60.715 35.7603H60.9101L59.8813 34.09H60.0675C60.1799 34.09 60.3159 34.0545 60.4725 33.9845C60.6263 33.9156 60.7406 33.819 60.8214 33.6889C60.9022 33.5598 60.9436 33.4051 60.9436 33.2287C60.9436 33.0188 60.8864 32.8473 60.7662 32.7044C60.648 32.5615 60.4962 32.4699 60.304 32.4266C60.17 32.396 59.9049 32.3802 59.5167 32.3802H58.9077V35.7603H59.0565V34.09H59.6871L60.715 35.7603ZM61.2846 35.9692H60.5987L59.5699 34.2989H59.2654V35.9692H58.6978V32.1703H59.5167C59.9266 32.1703 60.1996 32.1871 60.3513 32.2226C60.5869 32.2758 60.78 32.3931 60.9278 32.5714C61.0776 32.7498 61.1535 32.9715 61.1535 33.2287C61.1535 33.4455 61.1013 33.6377 60.9998 33.8003C60.8973 33.9638 60.7485 34.09 60.5583 34.1757C60.444 34.226 60.3405 34.2614 60.2439 34.2802L61.2846 35.9692Z" fill="#08203E"/>
<path d="M66.8662 35.8652H67.2239V32.2752H66.8662V35.8652Z" fill="#08203E"/>
<path d="M66.9687 35.7603H67.1165V32.3802H66.9687V35.7603ZM67.3264 35.9692H66.7588V32.1704H67.3264V35.9692Z" fill="#08203E"/>
<path d="M73.1484 32.2753H75.2051V32.628H73.5062V33.7515H74.5419V34.1003H73.5062V35.5085H75.1903V35.8652H73.1484V32.2753Z" fill="#08203E"/>
<path d="M73.2509 35.7603H75.0829V35.6145H73.3987V33.9954H74.4344V33.8565H73.3987V32.5241H75.0976V32.3802H73.2509V35.7603ZM75.2928 35.9692H73.041V32.1704H75.3076V32.734H73.6087V33.6475H74.6444V34.2053H73.6087V35.4046H75.2928V35.9692Z" fill="#08203E"/>
<path d="M81.0166 35.8652V32.2752H81.0935L83.4792 35.0227V32.2752H83.833V35.8652H83.7502L81.3891 33.1523V35.8652H81.0166Z" fill="#08203E"/>
<path d="M81.122 35.7603H81.2856V32.872L83.7295 35.6795V32.3802H83.5856V35.3031L81.122 32.467V35.7603ZM83.9384 35.9692H83.7039L81.4955 33.4317V35.9692H80.9131V32.1704H81.1427L83.3767 34.7424V32.1704H83.9384V35.9692Z" fill="#08203E"/>
<path d="M93.1527 32.9633L92.8679 33.1762C92.7132 32.9722 92.526 32.8194 92.3082 32.715C92.0894 32.6105 91.849 32.5593 91.5878 32.5593C91.3001 32.5593 91.035 32.6273 90.7916 32.7642C90.5472 32.9022 90.358 33.0865 90.224 33.3171C90.089 33.5487 90.022 33.8098 90.022 34.1005C90.022 34.538 90.1727 34.8898 90.4713 35.1559C90.7719 35.424 91.1503 35.557 91.6066 35.557C92.1101 35.557 92.5299 35.3599 92.8679 34.9667L93.1527 35.1815C92.9734 35.4092 92.7507 35.5856 92.4826 35.7098C92.2146 35.8339 91.917 35.896 91.5878 35.896C90.9581 35.896 90.4625 35.6871 90.0988 35.2692C89.7963 34.9155 89.6436 34.5154 89.6436 34.069C89.6436 33.5447 89.8288 33.1022 90.1974 32.7426C90.5659 32.3829 91.0271 32.2035 91.58 32.2035C91.916 32.2035 92.2185 32.2695 92.4885 32.4026C92.7595 32.5356 92.9803 32.7228 93.1527 32.9633Z" fill="#08203E"/>
<path d="M91.5794 32.3075C91.0571 32.3075 90.6157 32.479 90.2698 32.817C89.9229 33.154 89.7485 33.5758 89.7485 34.0685C89.7485 34.4873 89.8923 34.8687 90.1771 35.2008C90.523 35.5969 90.9842 35.7911 91.5873 35.7911C91.8987 35.7911 92.1845 35.731 92.4378 35.6137C92.6565 35.5132 92.8447 35.3733 93.0014 35.1988L92.8802 35.1072C92.5353 35.4748 92.1057 35.661 91.6051 35.661C91.1251 35.661 90.7201 35.5171 90.4018 35.2343C90.0796 34.9475 89.917 34.5662 89.917 34.1C89.917 33.7916 89.9889 33.5108 90.1328 33.2644C90.2757 33.018 90.4797 32.819 90.7379 32.6731C91.2296 32.3962 91.8652 32.3883 92.351 32.6189C92.555 32.7175 92.7344 32.8554 92.8842 33.0308L93.0044 32.9422C92.8516 32.7549 92.6634 32.6051 92.4417 32.4967C92.1875 32.3706 91.8977 32.3075 91.5794 32.3075ZM91.5873 36C90.929 36 90.4018 35.7773 90.0195 35.3378C89.7002 34.9663 89.5396 34.5396 89.5396 34.0685C89.5396 33.5167 89.7357 33.0456 90.1229 32.6672C90.5102 32.2898 91 32.0986 91.5794 32.0986C91.9293 32.0986 92.2515 32.1686 92.5343 32.3085C92.8181 32.4475 93.0546 32.6465 93.2379 32.9018L93.2971 32.9845L92.8467 33.3216L92.7836 33.2388C92.6378 33.0476 92.4673 32.9067 92.2604 32.8082C91.8376 32.6071 91.2729 32.611 90.8423 32.8554C90.6147 32.9835 90.4383 33.156 90.3131 33.3698C90.189 33.5837 90.1249 33.8291 90.1249 34.1C90.1249 34.509 90.2619 34.8293 90.5398 35.0776C90.8197 35.3259 91.1784 35.4521 91.6051 35.4521C92.081 35.4521 92.4673 35.2708 92.7876 34.8973L92.8516 34.8234L93.301 35.1614L93.235 35.2452C93.0458 35.4866 92.8073 35.6738 92.5255 35.8039C92.2456 35.934 91.9293 36 91.5873 36Z" fill="#08203E"/>
<path d="M98.9741 32.2753H101.031V32.628H99.3318V33.7515H100.369V34.1003H99.3318V35.5085H101.017V35.8652H98.9741V32.2753Z" fill="#08203E"/>
<path d="M99.08 35.7603H100.913V35.6145H99.2288V33.9954H100.265V33.8565H99.2288V32.5241H100.928V32.3802H99.08V35.7603ZM101.122 35.9692H98.8701V32.1704H101.137V32.734H99.4378V33.6475H100.473V34.2053H99.4378V35.4046H101.122V35.9692Z" fill="#08203E"/>
<path d="M19.2678 0.964792C17.4388 0.964792 15.8739 1.55899 14.5751 2.74547C13.2763 3.93294 12.6279 5.36087 12.6279 7.03022C12.6279 8.89764 13.3137 10.3078 14.6864 11.2597C15.527 11.8421 17.085 12.4472 19.3614 13.0779C21.7846 13.746 23.4737 14.4201 24.4246 15.1C26.0447 16.2501 26.8548 17.9263 26.8548 20.1268C26.8548 22.0691 26.1127 23.7257 24.6286 25.0984C23.1455 26.4711 21.3579 27.158 19.2678 27.158C17.1658 27.158 15.3723 26.4711 13.8882 25.0984C12.4042 23.7257 11.6621 22.0691 11.6621 20.1268H12.6279C12.6279 21.7971 13.2763 23.225 14.5751 24.4125C15.8739 25.6 17.4388 26.1932 19.2678 26.1932C21.0869 26.1932 22.6439 25.6 23.9428 24.4125C25.2416 23.225 25.891 21.7971 25.891 20.1268C25.891 18.2347 25.1982 16.7999 23.8127 15.8234C22.9721 15.2429 21.4013 14.6369 19.1013 14.0052C16.7017 13.3381 15.0254 12.6699 14.0735 12.0018C12.4672 10.8646 11.6621 9.20707 11.6621 7.03022C11.6621 5.08987 12.4042 3.43234 13.8882 2.05862C15.3723 0.686882 17.1658 3.62396e-05 19.2678 3.62396e-05C21.3579 3.62396e-05 23.1455 0.686882 24.6286 2.05862C26.1127 3.43234 26.8548 5.08987 26.8548 7.03022H25.891C25.891 5.36087 25.2416 3.93294 23.9428 2.74547C22.6439 1.55899 21.0869 0.964792 19.2678 0.964792Z" fill="#08203E"/>
<path d="M43.8818 26.1932C47.2826 26.1932 50.1946 24.9624 52.6188 22.5017C55.0302 20.0283 56.2364 17.0542 56.2364 13.5785C56.2364 10.1038 55.0302 7.12975 52.6188 4.65628C50.1946 2.19463 47.2826 0.964792 43.8818 0.964792C40.4692 0.964792 37.5562 2.19463 35.1448 4.65628C32.7334 7.12975 31.5282 10.1038 31.5282 13.5785C31.5282 17.0542 32.7334 20.0283 35.1448 22.5017C37.5562 24.9624 40.4692 26.1932 43.8818 26.1932ZM43.8818 3.62396e-05C47.5556 3.62396e-05 50.6962 1.33039 53.3056 3.98814C55.9023 6.63505 57.2021 9.83183 57.2021 13.5785C57.2021 17.3262 55.9023 20.5229 53.3056 23.1699C50.6962 25.8286 47.5556 27.158 43.8818 27.158C40.209 27.158 37.0674 25.8286 34.458 23.1699C31.8623 20.5229 30.5625 17.3262 30.5625 13.5785C30.5625 9.83183 31.8623 6.63505 34.458 3.98814C37.0674 1.33039 40.209 3.62396e-05 43.8818 3.62396e-05Z" fill="#08203E"/>
<path d="M60.9111 0.00102806V27.158H61.8779V0.964792H76.1432V0.00102806H60.9111Z" fill="#08203E"/>
<path d="M77.7581 27.158H76.7017L88.9064 3.62396e-05H89.7973L102 27.158H100.945L89.3518 1.37274L77.7581 27.158Z" fill="#08203E"/>
<path d="M66.2119 14.0063H90.4993V13.0386H66.2119V14.0063Z" fill="#08203E"/>
<path d="M35.8862 14.0063H51.8781V13.0386H35.8862V14.0063Z" fill="#08203E"/>
<path d="M23.4617 35.5901H2.15535C1.19552 35.5901 0.414062 34.8096 0.414062 33.8488V14.877C0.414062 13.9171 1.19552 13.1367 2.15535 13.1367H9.75413V14.0571H2.15535C1.70401 14.0571 1.33545 14.4256 1.33545 14.877V33.8488C1.33545 34.3011 1.70401 34.6687 2.15535 34.6687H23.4617V35.5901Z" fill="#08203E"/>
</svg>
