<svg width="103" height="36" viewBox="0 0 103 36" fill="none" xmlns="http://www.w3.org/2000/svg">
<path d="M27.1411 32.2753H29.1977V32.628H27.4988V33.7515H28.5345V34.1003H27.4988V35.5085H29.183V35.8652H27.1411V32.2753Z" fill="white"/>
<path d="M27.2433 35.7603H29.0763V35.6145H27.3912V33.9954H28.4269V33.8565H27.3912V32.5241H29.0901V32.3802H27.2433V35.7603ZM29.2852 35.9692H27.0334V32.1704H29.3V32.734H27.6011V33.6475H28.6368V34.2053H27.6011V35.4046H29.2852V35.9692Z" fill="white"/>
<path d="M34.8217 32.2753H35.2406L36.0999 33.6736L36.9661 32.2753H37.3829L36.3127 34.0136L37.4499 35.8652H37.0341L36.0999 34.3595L35.1637 35.8652H34.7439L35.889 34.0136L34.8217 32.2753Z" fill="white"/>
<path d="M37.0907 35.7603H37.2612L36.1881 34.0141L37.1932 32.3802H37.0237L36.0974 33.8742L35.1809 32.3802H35.0085L36.0107 34.0141L34.9306 35.7603H35.1031L36.0984 34.161L37.0907 35.7603ZM37.6357 35.9692H36.9744L36.0984 34.5581L35.2204 35.9692H34.5552L35.7643 34.0141L34.634 32.1704H35.2982L36.0984 33.4751L36.9065 32.1704H37.5677L36.4344 34.0141L37.6357 35.9692Z" fill="white"/>
<path d="M43.5047 32.6136V33.8336L44.1147 33.8405C44.3581 33.8405 44.5374 33.8178 44.6508 33.7735C44.7641 33.7291 44.8538 33.6572 44.9198 33.5567C44.9848 33.4552 45.0174 33.3448 45.0174 33.2236C45.0174 33.1004 44.9848 32.9891 44.9198 32.8895C44.8538 32.79 44.768 32.7181 44.6616 32.6767C44.5552 32.6343 44.3817 32.6136 44.1393 32.6136H43.5047ZM43.147 32.2648H43.8604C44.2714 32.2648 44.5493 32.2825 44.6912 32.319C44.8971 32.3702 45.0647 32.4737 45.1947 32.6304C45.3238 32.7871 45.3879 32.9842 45.3879 33.2236C45.3879 33.4601 45.3248 33.6572 45.1987 33.8119C45.0716 33.9686 44.8961 34.0731 44.6744 34.1263C44.5108 34.1647 44.2073 34.1844 43.7619 34.1844H43.5047V35.8538H43.147V32.2648Z" fill="white"/>
<path d="M43.6108 33.7304L44.1173 33.7353C44.346 33.7353 44.5125 33.7156 44.614 33.6762C44.7067 33.6407 44.7796 33.5826 44.8328 33.4998C44.888 33.416 44.9136 33.3254 44.9136 33.2239C44.9136 33.1214 44.888 33.0307 44.8328 32.947C44.7796 32.8652 44.7106 32.808 44.6249 32.7745C44.5322 32.7381 44.3696 32.7193 44.14 32.7193H43.6108V33.7304ZM44.1164 33.9452L43.4019 33.9373V32.5094H44.14C44.4002 32.5094 44.5825 32.5321 44.7017 32.5804C44.8269 32.6297 44.9313 32.7144 45.0082 32.8326C45.0851 32.9499 45.1235 33.081 45.1235 33.2239C45.1235 33.3648 45.0851 33.4959 45.0082 33.6141C44.9313 33.7333 44.8229 33.8201 44.6899 33.8723C44.5628 33.9206 44.3746 33.9452 44.1164 33.9452ZM43.2531 35.7496H43.4019V34.0802H43.7626C44.1972 34.0802 44.4958 34.0615 44.6515 34.0251C44.8525 33.9768 45.0052 33.8861 45.1176 33.7471C45.2299 33.6092 45.2841 33.4377 45.2841 33.2239C45.2841 33.009 45.2289 32.8366 45.1146 32.6967C44.9993 32.5577 44.8525 32.467 44.6662 32.4207C44.5352 32.3872 44.2652 32.3705 43.8621 32.3705H43.2531V35.7496ZM43.6108 35.9595H43.0432V32.1616H43.8621C44.2878 32.1616 44.5687 32.1793 44.7175 32.2177C44.9451 32.2739 45.1333 32.3902 45.2752 32.5636C45.4201 32.74 45.494 32.9617 45.494 33.2239C45.494 33.484 45.4221 33.7048 45.2802 33.8792C45.1393 34.0526 44.9441 34.1699 44.6997 34.2281C44.5263 34.2694 44.2189 34.2891 43.7626 34.2891H43.6108V35.9595Z" fill="white"/>
<path d="M51.2078 32.2753H53.2644V32.628H51.5655V33.7515H52.6012V34.1003H51.5655V35.5085H53.2496V35.8652H51.2078V32.2753Z" fill="white"/>
<path d="M51.3137 35.7603H53.1466V35.6145H51.4615V33.9954H52.4972V33.8565H51.4615V32.5241H53.1604V32.3802H51.3137V35.7603ZM53.3555 35.9692H51.1038V32.1704H53.3703V32.734H51.6714V33.6475H52.7071V34.2053H51.6714V35.4046H53.3555V35.9692Z" fill="white"/>
<path d="M59.4529 32.6261V33.846L60.0708 33.851C60.3093 33.851 60.4867 33.8283 60.602 33.783C60.7173 33.7376 60.8069 33.6657 60.87 33.5652C60.9341 33.4657 60.9656 33.3533 60.9656 33.2292C60.9656 33.1099 60.9331 33.0005 60.868 32.903C60.802 32.8034 60.7173 32.7335 60.6128 32.6911C60.5074 32.6477 60.332 32.6261 60.0856 32.6261H59.4529ZM59.0952 32.2752H59.8087C60.2078 32.2752 60.4778 32.292 60.6207 32.3245C60.8326 32.3728 61.006 32.4763 61.14 32.6379C61.274 32.7975 61.3411 32.9956 61.3411 33.2292C61.3411 33.4263 61.2947 33.5977 61.2031 33.7445C61.1114 33.8914 60.9794 34.0027 60.8079 34.0796C60.6355 34.1565 60.4867 34.1939 60.3605 34.1939L61.3893 35.8652H60.9498L59.921 34.1939H59.4529V35.8652H59.0952V32.2752Z" fill="white"/>
<path d="M59.5588 33.7421L60.0722 33.7461C60.2969 33.7461 60.4625 33.7254 60.565 33.6859C60.6596 33.6485 60.7305 33.5914 60.7818 33.5096C60.836 33.4258 60.8616 33.3341 60.8616 33.2287C60.8616 33.1302 60.836 33.0425 60.7818 32.9617C60.7286 32.8799 60.6596 32.8227 60.5738 32.7882C60.5098 32.7616 60.3728 32.731 60.0861 32.731H59.5588V33.7421ZM60.0722 33.956L59.3499 33.95V32.5221H60.0861C60.3482 32.5221 60.5325 32.5458 60.6527 32.5941C60.7778 32.6443 60.8803 32.7291 60.9562 32.8454C61.0321 32.9607 61.0715 33.0888 61.0715 33.2287C61.0715 33.3726 61.0341 33.5056 60.9592 33.6219C60.8852 33.7401 60.7768 33.8269 60.6408 33.8801C60.5147 33.9313 60.3275 33.956 60.0722 33.956ZM61.0084 35.7603H61.2035L60.1747 34.09H60.361C60.4733 34.09 60.6093 34.0545 60.766 33.9845C60.9197 33.9156 61.034 33.819 61.1148 33.6889C61.1957 33.5598 61.2371 33.4051 61.2371 33.2287C61.2371 33.0188 61.1799 32.8473 61.0597 32.7044C60.9414 32.5615 60.7897 32.4699 60.5975 32.4266C60.4635 32.396 60.1984 32.3802 59.8101 32.3802H59.2011V35.7603H59.3499V34.09H59.9806L61.0084 35.7603ZM61.578 35.9692H60.8921L59.8633 34.2989H59.5588V35.9692H58.9912V32.1703H59.8101C60.2201 32.1703 60.493 32.1871 60.6448 32.2226C60.8803 32.2758 61.0735 32.3931 61.2213 32.5714C61.3711 32.7498 61.4469 32.9715 61.4469 33.2287C61.4469 33.4455 61.3947 33.6377 61.2932 33.8003C61.1907 33.9638 61.0419 34.09 60.8517 34.1757C60.7374 34.226 60.634 34.2614 60.5374 34.2802L61.578 35.9692Z" fill="white"/>
<path d="M67.1597 35.8652H67.5174V32.2752H67.1597V35.8652Z" fill="white"/>
<path d="M67.2617 35.7603H67.4095V32.3802H67.2617V35.7603ZM67.6194 35.9692H67.0518V32.1704H67.6194V35.9692Z" fill="white"/>
<path d="M73.4419 32.2753H75.4985V32.628H73.7996V33.7515H74.8353V34.1003H73.7996V35.5085H75.4838V35.8652H73.4419V32.2753Z" fill="white"/>
<path d="M73.5439 35.7603H75.3759V35.6145H73.6917V33.9954H74.7274V33.8565H73.6917V32.5241H75.3906V32.3802H73.5439V35.7603ZM75.5857 35.9692H73.334V32.1704H75.6005V32.734H73.9016V33.6475H74.9373V34.2053H73.9016V35.4046H75.5857V35.9692Z" fill="white"/>
<path d="M81.3101 35.8652V32.2752H81.3869L83.7727 35.0227V32.2752H84.1265V35.8652H84.0437L81.6825 33.1523V35.8652H81.3101Z" fill="white"/>
<path d="M81.415 35.7603H81.5786V32.872L84.0225 35.6795V32.3802H83.8786V35.3031L81.415 32.467V35.7603ZM84.2314 35.9692H83.9968L81.7885 33.4317V35.9692H81.2061V32.1704H81.4357L83.6697 34.7424V32.1704H84.2314V35.9692Z" fill="white"/>
<path d="M93.4457 32.9633L93.1609 33.1762C93.0062 32.9722 92.819 32.8194 92.6012 32.715C92.3824 32.6105 92.1419 32.5593 91.8808 32.5593C91.5931 32.5593 91.328 32.6273 91.0846 32.7642C90.8402 32.9022 90.651 33.0865 90.5169 33.3171C90.3819 33.5487 90.3149 33.8098 90.3149 34.1005C90.3149 34.538 90.4657 34.8898 90.7643 35.1559C91.0649 35.424 91.4433 35.557 91.8995 35.557C92.4031 35.557 92.8229 35.3599 93.1609 34.9667L93.4457 35.1815C93.2664 35.4092 93.0436 35.5856 92.7756 35.7098C92.5076 35.8339 92.2099 35.896 91.8808 35.896C91.2511 35.896 90.7554 35.6871 90.3918 35.2692C90.0893 34.9155 89.9365 34.5154 89.9365 34.069C89.9365 33.5447 90.1218 33.1022 90.4904 32.7426C90.8589 32.3829 91.3201 32.2035 91.8729 32.2035C92.209 32.2035 92.5115 32.2695 92.7815 32.4026C93.0525 32.5356 93.2733 32.7228 93.4457 32.9633Z" fill="white"/>
<path d="M91.8724 32.3075C91.3501 32.3075 90.9086 32.479 90.5627 32.817C90.2159 33.154 90.0414 33.5758 90.0414 34.0685C90.0414 34.4873 90.1853 34.8687 90.4701 35.2008C90.816 35.5969 91.2772 35.7911 91.8803 35.7911C92.1917 35.7911 92.4775 35.731 92.7307 35.6137C92.9495 35.5132 93.1377 35.3733 93.2944 35.1988L93.1732 35.1072C92.8283 35.4748 92.3986 35.661 91.898 35.661C91.4181 35.661 91.0131 35.5171 90.6948 35.2343C90.3725 34.9475 90.2099 34.5662 90.2099 34.1C90.2099 33.7916 90.2819 33.5108 90.4258 33.2644C90.5687 33.018 90.7726 32.819 91.0308 32.6731C91.5226 32.3962 92.1582 32.3883 92.644 32.6189C92.848 32.7175 93.0274 32.8554 93.1771 33.0308L93.2973 32.9422C93.1446 32.7549 92.9564 32.6051 92.7347 32.4967C92.4804 32.3706 92.1907 32.3075 91.8724 32.3075ZM91.8803 36C91.222 36 90.6948 35.7773 90.3124 35.3378C89.9931 34.9663 89.8325 34.5396 89.8325 34.0685C89.8325 33.5167 90.0286 33.0456 90.4159 32.6672C90.8032 32.2898 91.293 32.0986 91.8724 32.0986C92.2222 32.0986 92.5445 32.1686 92.8273 32.3085C93.1111 32.4475 93.3476 32.6465 93.5309 32.9018L93.59 32.9845L93.1397 33.3216L93.0766 33.2388C92.9308 33.0476 92.7603 32.9067 92.5534 32.8082C92.1306 32.6071 91.5659 32.611 91.1353 32.8554C90.9076 32.9835 90.7313 33.156 90.6061 33.3698C90.4819 33.5837 90.4179 33.8291 90.4179 34.1C90.4179 34.509 90.5549 34.8293 90.8328 35.0776C91.1126 35.3259 91.4713 35.4521 91.898 35.4521C92.374 35.4521 92.7603 35.2708 93.0806 34.8973L93.1446 34.8234L93.594 35.1614L93.5279 35.2452C93.3387 35.4866 93.1003 35.6738 92.8184 35.8039C92.5386 35.934 92.2222 36 91.8803 36Z" fill="white"/>
<path d="M99.2676 32.2753H101.324V32.628H99.6253V33.7515H100.662V34.1003H99.6253V35.5085H101.31V35.8652H99.2676V32.2753Z" fill="white"/>
<path d="M99.3735 35.7603H101.206V35.6145H99.5223V33.9954H100.558V33.8565H99.5223V32.5241H101.221V32.3802H99.3735V35.7603ZM101.415 35.9692H99.1636V32.1704H101.43V32.734H99.7312V33.6475H100.767V34.2053H99.7312V35.4046H101.415V35.9692Z" fill="white"/>
<path d="M19.561 0.964792C17.732 0.964792 16.1671 1.55899 14.8683 2.74547C13.5695 3.93294 12.9211 5.36087 12.9211 7.03022C12.9211 8.89764 13.6069 10.3078 14.9797 11.2597C15.8202 11.8421 17.3782 12.4472 19.6546 13.0779C22.0778 13.746 23.7669 14.4201 24.7178 15.1C26.3379 16.2501 27.148 17.9263 27.148 20.1268C27.148 22.0691 26.4059 23.7257 24.9218 25.0984C23.4387 26.4711 21.6511 27.158 19.561 27.158C17.459 27.158 15.6655 26.4711 14.1814 25.0984C12.6974 23.7257 11.9553 22.0691 11.9553 20.1268H12.9211C12.9211 21.7971 13.5695 23.225 14.8683 24.4125C16.1671 25.6 17.732 26.1932 19.561 26.1932C21.3801 26.1932 22.9371 25.6 24.236 24.4125C25.5348 23.225 26.1842 21.7971 26.1842 20.1268C26.1842 18.2347 25.4914 16.7999 24.1059 15.8234C23.2653 15.2429 21.6945 14.6369 19.3945 14.0052C16.9949 13.3381 15.3187 12.6699 14.3667 12.0018C12.7604 10.8646 11.9553 9.20707 11.9553 7.03022C11.9553 5.08987 12.6974 3.43234 14.1814 2.05862C15.6655 0.686882 17.459 3.62396e-05 19.561 3.62396e-05C21.6511 3.62396e-05 23.4387 0.686882 24.9218 2.05862C26.4059 3.43234 27.148 5.08987 27.148 7.03022H26.1842C26.1842 5.36087 25.5348 3.93294 24.236 2.74547C22.9371 1.55899 21.3801 0.964792 19.561 0.964792Z" fill="white"/>
<path d="M44.1753 26.1932C47.576 26.1932 50.488 24.9624 52.9122 22.5017C55.3236 20.0283 56.5298 17.0542 56.5298 13.5785C56.5298 10.1038 55.3236 7.12975 52.9122 4.65628C50.488 2.19463 47.576 0.964792 44.1753 0.964792C40.7627 0.964792 37.8497 2.19463 35.4383 4.65628C33.0269 7.12975 31.8217 10.1038 31.8217 13.5785C31.8217 17.0542 33.0269 20.0283 35.4383 22.5017C37.8497 24.9624 40.7627 26.1932 44.1753 26.1932ZM44.1753 3.62396e-05C47.849 3.62396e-05 50.9896 1.33039 53.5991 3.98814C56.1958 6.63505 57.4956 9.83183 57.4956 13.5785C57.4956 17.3262 56.1958 20.5229 53.5991 23.1699C50.9896 25.8286 47.849 27.158 44.1753 27.158C40.5025 27.158 37.3609 25.8286 34.7514 23.1699C32.1558 20.5229 30.856 17.3262 30.856 13.5785C30.856 9.83183 32.1558 6.63505 34.7514 3.98814C37.3609 1.33039 40.5025 3.62396e-05 44.1753 3.62396e-05Z" fill="white"/>
<path d="M61.2046 0.00102806V27.158H62.1713V0.964792H76.4366V0.00102806H61.2046Z" fill="white"/>
<path d="M78.0513 27.158H76.9949L89.1996 3.62396e-05H90.0905L102.293 27.158H101.238L89.6451 1.37274L78.0513 27.158Z" fill="white"/>
<path d="M66.5051 14.0063H90.7925V13.0386H66.5051V14.0063Z" fill="white"/>
<path d="M36.1797 14.0063H52.1715V13.0386H36.1797V14.0063Z" fill="white"/>
<path d="M23.7549 35.5901H2.44856C1.48873 35.5901 0.707275 34.8096 0.707275 33.8488V14.877C0.707275 13.9171 1.48873 13.1367 2.44856 13.1367H10.0473V14.0571H2.44856C1.99722 14.0571 1.62867 14.4256 1.62867 14.877V33.8488C1.62867 34.3011 1.99722 34.6687 2.44856 34.6687H23.7549V35.5901Z" fill="white"/>
</svg>
